<?xml version="1.0" standalone="no"?>
<!DOCTYPE svg PUBLIC "-//W3C//DTD SVG 20010904//EN"
 "http://www.w3.org/TR/2001/REC-SVG-20010904/DTD/svg10.dtd">
<svg version="1.0" xmlns="http://www.w3.org/2000/svg"
 width="260.000000pt" height="260.000000pt" viewBox="0 0 260.000000 260.000000"
 preserveAspectRatio="xMidYMid meet">
<metadata>
Created by potrace 1.14, written by Peter Selinger 2001-2017
</metadata>
<g transform="translate(0.000000,260.000000) scale(0.100000,-0.100000)"
fill="#000000" stroke="none">
<path d="M1115 2191 c-383 -88 -633 -364 -686 -757 -24 -179 7 -421 72 -569
52 -119 142 -236 240 -311 249 -191 676 -237 989 -105 143 60 274 177 342 306
68 130 89 226 95 428 l6 177 -402 0 -401 0 0 -150 0 -150 201 0 200 0 -7 -47
c-24 -164 -130 -277 -295 -313 -85 -19 -259 -8 -330 19 -168 67 -264 220 -290
463 -30 287 54 529 223 638 86 56 164 74 295 68 124 -6 177 -24 243 -84 50
-45 85 -103 101 -166 l11 -48 199 0 199 0 0 28 c0 43 -37 168 -69 230 -80 159
-221 266 -428 328 -77 23 -110 27 -258 30 -139 3 -185 0 -250 -15z"/>
</g>
</svg>
